<svg width="57" height="57" viewBox="0 0 57 57" fill="none" xmlns="http://www.w3.org/2000/svg">
<g id="button_top">
<g id="Group 9" filter="url(#filter0_d_11_28)">
<g id="Group 7.1">
<g id="Group 4">
<rect id="Rectangle 3.1" x="4" y="4" width="49" height="49" rx="8" fill="white"/>
</g>
</g>
<g id="Group 19">
<path id="Vector" d="M36.0887 27.0852L28.5182 20.072C28.5148 20.072 28.5121 20.0692 28.5121 20.0659L28.4937 20.0475C28.4876 20.0414 28.4754 20.0353 28.4692 20.0292C28.4633 20.0215 28.4545 20.0171 28.4447 20.0169C28.4386 20.0108 28.4264 20.0047 28.4202 19.9985C28.4141 19.9924 28.4019 19.9924 28.3957 19.9863C28.3896 19.9802 28.3774 19.9802 28.3651 19.974C28.359 19.9679 28.3467 19.9679 28.3406 19.9618C28.3284 19.9557 28.3222 19.9557 28.31 19.9495C28.3039 19.9495 28.2916 19.9434 28.2855 19.9434C28.2732 19.9434 28.2671 19.9373 28.2549 19.9373C28.2487 19.9373 28.2365 19.9312 28.2304 19.9312C28.2181 19.9312 28.2059 19.925 28.1936 19.925L28.0344 19.925C28.0221 19.925 28.0099 19.9312 27.9976 19.9312C27.9915 19.9312 27.9792 19.9373 27.9731 19.9373C27.9609 19.9373 27.9547 19.9434 27.9425 19.9434C27.9364 19.9434 27.9241 19.9495 27.918 19.9495C27.9057 19.9557 27.8996 19.9557 27.8874 19.9618C27.8812 19.9679 27.869 19.9679 27.8629 19.974C27.8506 19.9802 27.8445 19.9802 27.8322 19.9863C27.8261 19.9924 27.8139 19.9924 27.8077 19.9985C27.8016 20.0047 27.7894 20.0108 27.7832 20.0169C27.7771 20.023 27.771 20.023 27.7587 20.0292C27.7526 20.0353 27.7404 20.0414 27.7342 20.0475L27.7159 20.0659C27.7124 20.0659 27.7097 20.0688 27.7097 20.072L20.1392 27.0852C19.882 27.3051 19.8519 27.6917 20.0719 27.9488C20.2916 28.2058 20.6782 28.2361 20.9355 28.0162L27.5015 21.8667L27.5015 35.7337C27.5015 36.0721 27.7756 36.3462 28.114 36.3462C28.4524 36.3462 28.7265 36.0721 28.7265 35.7337L28.7265 21.8667L35.2925 28.0162C35.5497 28.2361 35.9364 28.2058 36.1561 27.9488C36.376 27.6917 36.346 27.3051 36.0887 27.0852Z" fill="black"/>
</g>
</g>
</g>
<defs>
<filter id="filter0_d_11_28" x="0" y="0" width="57" height="57" filterUnits="userSpaceOnUse" color-interpolation-filters="sRGB">
<feFlood flood-opacity="0" result="BackgroundImageFix"/>
<feColorMatrix in="SourceAlpha" type="matrix" values="0 0 0 0 0 0 0 0 0 0 0 0 0 0 0 0 0 0 127 0" result="hardAlpha"/>
<feOffset/>
<feGaussianBlur stdDeviation="2"/>
<feColorMatrix type="matrix" values="0 0 0 0 0 0 0 0 0 0 0 0 0 0 0 0 0 0 0.25 0"/>
<feBlend mode="normal" in2="BackgroundImageFix" result="effect1_dropShadow_11_28"/>
<feBlend mode="normal" in="SourceGraphic" in2="effect1_dropShadow_11_28" result="shape"/>
</filter>
</defs>
</svg>
