<svg width="30" height="30" viewBox="0 0 30 30" fill="none" xmlns="http://www.w3.org/2000/svg">
<path fill-rule="evenodd" clip-rule="evenodd" d="M15 1.25C15.6904 1.25 16.25 1.80964 16.25 2.5V7.5C16.25 8.19036 15.6904 8.75 15 8.75C14.3096 8.75 13.75 8.19036 13.75 7.5V2.5C13.75 1.80964 14.3096 1.25 15 1.25Z" fill="black"/>
<path fill-rule="evenodd" clip-rule="evenodd" d="M15 21.25C15.6904 21.25 16.25 21.8096 16.25 22.5V27.5C16.25 28.1904 15.6904 28.75 15 28.75C14.3096 28.75 13.75 28.1904 13.75 27.5V22.5C13.75 21.8096 14.3096 21.25 15 21.25Z" fill="black"/>
<path fill-rule="evenodd" clip-rule="evenodd" d="M5.27871 5.27859C5.76687 4.79044 6.55833 4.79044 7.04648 5.27859L10.584 8.81609C11.0721 9.30425 11.0721 10.0957 10.584 10.5839C10.0958 11.072 9.30437 11.072 8.81621 10.5839L5.27871 7.04636C4.79056 6.5582 4.79056 5.76675 5.27871 5.27859Z" fill="black"/>
<path fill-rule="evenodd" clip-rule="evenodd" d="M19.4159 19.4161C19.9041 18.9279 20.6955 18.9279 21.1837 19.4161L24.7212 22.9536C25.2093 23.4418 25.2093 24.2332 24.7212 24.7214C24.233 25.2095 23.4416 25.2095 22.9534 24.7214L19.4159 21.1839C18.9278 20.6957 18.9278 19.9043 19.4159 19.4161Z" fill="black"/>
<path fill-rule="evenodd" clip-rule="evenodd" d="M1.25 15C1.25 14.3096 1.80964 13.75 2.5 13.75H7.5C8.19036 13.75 8.75 14.3096 8.75 15C8.75 15.6904 8.19036 16.25 7.5 16.25H2.5C1.80964 16.25 1.25 15.6904 1.25 15Z" fill="black"/>
<path fill-rule="evenodd" clip-rule="evenodd" d="M21.25 15C21.25 14.3096 21.8096 13.75 22.5 13.75H27.5C28.1904 13.75 28.75 14.3096 28.75 15C28.75 15.6904 28.1904 16.25 27.5 16.25H22.5C21.8096 16.25 21.25 15.6904 21.25 15Z" fill="black"/>
<path fill-rule="evenodd" clip-rule="evenodd" d="M10.584 19.4161C11.0721 19.9043 11.0721 20.6957 10.584 21.1839L7.04648 24.7214C6.55833 25.2095 5.76687 25.2095 5.27871 24.7214C4.79056 24.2332 4.79056 23.4418 5.27871 22.9536L8.81621 19.4161C9.30437 18.9279 10.0958 18.9279 10.584 19.4161Z" fill="black"/>
<path fill-rule="evenodd" clip-rule="evenodd" d="M24.7212 5.27859C25.2093 5.76675 25.2093 6.5582 24.7212 7.04636L21.1837 10.5839C20.6955 11.072 19.9041 11.072 19.4159 10.5839C18.9278 10.0957 18.9278 9.30425 19.4159 8.81609L22.9534 5.27859C23.4416 4.79044 24.233 4.79044 24.7212 5.27859Z" fill="black"/>
</svg>
